<svg version="1.1" xmlns="http://www.w3.org/2000/svg" xmlns:xlink="http://www.w3.org/1999/xlink" width="354.16765pt" height="60.37071pt" viewBox="-72 -72 354.16765 60.37071" role="img"><g stroke-miterlimit="10" transform="translate(2.106857299804687,-43.41726684570312) scale(1,-1)"><g stroke="#000" fill="#000"> <g stroke-width="0.4"> <path d=" M -73.9773 0.0 L 71.06903 0.0  " fill="none"></path> <g transform="translate(69.42485,0.0)"> <g stroke-dasharray="none" stroke-dashoffset="0.0"> <g stroke-linejoin="miter"> <path d=" M 3.98286 0.0 L 0.64581 1.25795 L 1.74417 0.0 L 0.64581 -1.25795 Z  "></path> </g> </g>  </g> <g transform="translate(77.51027,-2.25)"> <g stroke="#000" fill="#000"> <g stroke="none" transform="scale(-1,1) translate(2.106857299804687,-43.41726684570312) scale(-1,-1)"><g fill="#000"> <g stroke="none"> <text alignment-baseline="baseline" y="-43.41726684570312" x="2.106857299804687" font-family="cmmi9" font-size="9" fill="black"></text></g> </g> </g></g> </g> <g stroke="#8c8c8c" fill="#8c8c8c"> <g fill="#ebebeb"> <g stroke-width="0.8"> <path d=" M -73.97687 0.0 L -54.06003 28.45274 L -34.1432 0.0  "></path> </g> </g> </g> <g stroke="#8c8c8c" fill="#8c8c8c"> <g fill="#ebebeb"> <g stroke-width="0.8"> <path d=" M 34.1432 0.0 L 54.06003 28.45274 L 73.97687 0.0  "></path> </g> </g> </g> <g stroke="#1f5fad" fill="#1f5fad"> <g fill="#d3dfef"> <g stroke-width="0.8"> <path d=" M -19.91682 0.0 L 0.0 28.45274 L 19.91682 0.0  "></path> </g> </g> </g> <g transform="translate(49.81178,-9.78297)"> <g stroke="#000" fill="#000"> <g stroke="none" transform="scale(-1,1) translate(2.106857299804687,-43.41726684570312) scale(-1,-1)"><g fill="#000"> <g stroke="none"> <text alignment-baseline="baseline" y="-43.41726684570312" x="2.106857299804687" font-family="cmmi9" font-size="9" fill="black"></text><text alignment-baseline="baseline" y="-42.41728210449218" x="6.596420288085936" font-family="cmmi6" font-size="6" fill="black"></text></g> </g> </g></g> </g> <g transform="translate(-2.31248,-9.33296)"> <g stroke="#000" fill="#000"> <g stroke="none" transform="scale(-1,1) translate(2.106857299804687,-43.41726684570312) scale(-1,-1)"><g fill="#000"> <g stroke="none"> <text alignment-baseline="baseline" y="-43.41726684570312" x="2.106857299804687" font-family="cmr9" font-size="9" fill="black"></text></g> </g> </g></g> </g> <g transform="translate(-54.02829,-26.435)"> <g stroke="#000" fill="#000"> <g stroke="none" transform="scale(-1,1) translate(2.106857299804687,-43.41726684570312) scale(-1,-1)"><g fill="#000"> <g stroke="none"> <text alignment-baseline="baseline" y="-43.41726684570312" x="2.106857299804687" font-family="cmmi9" font-size="9" fill="black"></text><text alignment-baseline="baseline" y="-42.41728210449218" x="6.596420288085936" font-family="cmmi6" font-size="6" fill="black"></text><text alignment-baseline="baseline" y="-43.41726684570312" x="13.172790527343746" font-family="cmmi9" font-size="9" fill="black"></text><text alignment-baseline="baseline" y="-43.41726684570312" x="22.93661499023437" font-family="cmr9" font-size="9" fill="black"></text><text alignment-baseline="baseline" y="-43.41726684570312" x="27.561584472656243" font-family="cmmi9" font-size="9" fill="black"></text><text alignment-baseline="baseline" y="-43.41726684570312" x="35.009091377258294" font-family="cmr9" font-size="9" fill="black"></text><text alignment-baseline="baseline" y="-43.41726684570312" x="41.68960285186767" font-family="cmr9" font-size="9" fill="black"></text><text alignment-baseline="baseline" y="-43.41726684570312" x="68.9804058074951" font-family="cmr9" font-size="9" fill="black"></text><text alignment-baseline="baseline" y="-43.41726684570312" x="80.59422492980956" font-family="cmr9" font-size="9" fill="black"></text><text alignment-baseline="baseline" y="-43.41726684570312" x="88.55945014953612" font-family="cmr9" font-size="9" fill="black"></text></g> </g> </g></g> </g> <path d=" M 119.50153 0.0 L 264.54785 0.0  " fill="none"></path> <g transform="translate(262.90367,0.0)"> <g stroke-dasharray="none" stroke-dashoffset="0.0"> <g stroke-linejoin="miter"> <path d=" M 3.98286 0.0 L 0.64581 1.25795 L 1.74417 0.0 L 0.64581 -1.25795 Z  "></path> </g> </g>  </g> <g transform="translate(270.98909,-2.25)"> <g stroke="#000" fill="#000"> <g stroke="none" transform="scale(-1,1) translate(2.106857299804687,-43.41726684570312) scale(-1,-1)"><g fill="#000"> <g stroke="none"> <text alignment-baseline="baseline" y="-43.41726684570312" x="2.106857299804687" font-family="cmmi9" font-size="9" fill="black"></text></g> </g> </g></g> </g> <g stroke="#8c8c8c" fill="#8c8c8c"> <g fill="#ebebeb"> <g stroke-width="0.8"> <path d=" M 145.10925 0.0 L 165.02608 28.45274 L 184.94292 0.0  "></path> </g> </g> </g> <g stroke="#8c8c8c" fill="#8c8c8c"> <g fill="#ebebeb"> <g stroke-width="0.8"> <path d=" M 202.01472 0.0 L 221.93156 28.45274 L 241.84839 0.0  "></path> </g> </g> </g> <g stroke="#1f5fad" fill="#1f5fad"> <g fill="#d3dfef"> <g stroke-width="0.8"> <path d=" M 173.562 0.0 L 193.47882 28.45274 L 213.39565 0.0  "></path> </g> </g> </g> <g stroke="#c0392b" fill="#c0392b"> <g stroke-opacity="0.75"> <g fill-opacity="0.75"> <path d=" M 202.01472 0.0 L 207.70518 8.1291 L 213.39565 0.0 Z  " stroke="none"></path> </g> </g> </g> <g stroke="#c0392b" fill="#c0392b"> <g stroke-opacity="0.75"> <g fill-opacity="0.75"> <path d=" M 184.94292 0.0 L 179.25246 8.1291 L 173.562 0.0 Z  " stroke="none"></path> </g> </g> </g> <g transform="translate(217.68332,-9.78297)"> <g stroke="#000" fill="#000"> <g stroke="none" transform="scale(-1,1) translate(2.106857299804687,-43.41726684570312) scale(-1,-1)"><g fill="#000"> <g stroke="none"> <text alignment-baseline="baseline" y="-43.41726684570312" x="2.106857299804687" font-family="cmmi9" font-size="9" fill="black"></text><text alignment-baseline="baseline" y="-42.41728210449218" x="6.596420288085936" font-family="cmmi6" font-size="6" fill="black"></text></g> </g> </g></g> </g> <g transform="translate(191.16634,-9.33296)"> <g stroke="#000" fill="#000"> <g stroke="none" transform="scale(-1,1) translate(2.106857299804687,-43.41726684570312) scale(-1,-1)"><g fill="#000"> <g stroke="none"> <text alignment-baseline="baseline" y="-43.41726684570312" x="2.106857299804687" font-family="cmr9" font-size="9" fill="black"></text></g> </g> </g></g> </g> <g transform="translate(127.50096,-26.435)"> <g stroke="#000" fill="#000"> <g stroke="none" transform="scale(-1,1) translate(2.106857299804687,-43.41726684570312) scale(-1,-1)"><g fill="#000"> <g stroke="none"> <text alignment-baseline="baseline" y="-43.41726684570312" x="2.106857299804687" font-family="cmmi9" font-size="9" fill="black"></text><text alignment-baseline="baseline" y="-42.41728210449218" x="6.596420288085936" font-family="cmmi6" font-size="6" fill="black"></text><text alignment-baseline="baseline" y="-43.41726684570312" x="13.172790527343746" font-family="cmmi9" font-size="9" fill="black"></text><text alignment-baseline="baseline" y="-43.41726684570312" x="22.93661499023437" font-family="cmr9" font-size="9" fill="black"></text><text alignment-baseline="baseline" y="-43.41726684570312" x="27.561584472656243" font-family="cmmi9" font-size="9" fill="black"></text><text alignment-baseline="baseline" y="-43.41726684570312" x="35.009091377258294" font-family="cmr9" font-size="9" fill="black"></text><text alignment-baseline="baseline" y="-43.41726684570312" x="41.68960285186767" font-family="cmr9" font-size="9" fill="black"></text><text alignment-baseline="baseline" y="-43.41726684570312" x="68.9804058074951" font-family="cmr9" font-size="9" fill="black"></text><text alignment-baseline="baseline" y="-43.41726684570312" x="73.34843254089354" font-family="cmr9" font-size="9" fill="black"></text><text alignment-baseline="baseline" y="-43.41726684570312" x="77.97340202331542" font-family="cmr9" font-size="9" fill="black"></text><text alignment-baseline="baseline" y="-43.41726684570312" x="103.69199275970456" font-family="cmr9" font-size="9" fill="#c0392b"></text></g> </g> </g></g> </g> </g> </g> </g></svg>
