<svg version="1.1" xmlns="http://www.w3.org/2000/svg" xmlns:xlink="http://www.w3.org/1999/xlink" width="165.95023pt" height="86.28287pt" viewBox="-72 -72 165.95023 86.28287" role="img"><g stroke-miterlimit="10" transform="translate(-72.07000732421874,13.812866210937496) scale(1,-1)"><g stroke="#000" fill="#000"> <g stroke-width="0.4"> <g stroke="#000" fill="#000"> <g stroke="none" transform="scale(-1,1) translate(-72.07000732421874,13.812866210937496) scale(-1,-1)"></g></g> <g transform="translate(-0.2,-0.2)"> <g stroke="#000" fill="#000"> <g stroke="none" transform="scale(-1,1) translate(-72.07000732421874,13.812866210937496) scale(-1,-1)"><g stroke-miterlimit="10" transform="translate(-71.87001037597655,13.612869262695309) scale(1,-1)"><g stroke="#000" fill="#000"> <g stroke-width="0.4"> <g stroke-width="0.2"> <g stroke="#808080" fill="#808080"> <path d=" M 45.98618 30.5834 L 45.98618 34.85115 M 64.38065 30.5834 L 64.38065 34.85115 M 82.77512 30.5834 L 82.77512 34.85115 M 101.16959 30.5834 L 101.16959 34.85115 M 119.56406 30.5834 L 119.56406 34.85115 M 137.95853 30.5834 L 137.95853 34.85115  " fill="none"></path> </g> </g> <g stroke-width="0.2"> <g stroke="#808080" fill="#808080"> <path d="  " fill="none"></path> </g> </g> <path d=" M 0.0 32.71729 L 163.55026 32.71729  " fill="none"></path> <g transform="translate(163.55026,32.71729)"> <path d=" M 1.99997 0.0 L -1.19998 1.59998 L 0.0 0.0 L -1.19998 -1.59998  " stroke="none"></path>  </g> <path d=" M 27.5917 0.0 L 27.5917 83.8829  " fill="none"></path> <g transform="matrix(0.0,1.0,-1.0,0.0,27.5917,83.8829)"> <path d=" M 1.99997 0.0 L -1.19998 1.59998 L 0.0 0.0 L -1.19998 -1.59998  " stroke="none"></path>  </g> <g transform="translate(45.98618,27.05043)"> <g stroke="#000" fill="#000"> <g stroke="none" transform="scale(-1,1) translate(-71.87001037597655,13.612869262695309) scale(-1,-1)"><g fill="#000"> <g stroke="none"> </g> </g> </g></g> </g> <g transform="translate(64.38065,27.05043)"> <g stroke="#000" fill="#000"> <g stroke="none" transform="scale(-1,1) translate(-71.87001037597655,13.612869262695309) scale(-1,-1)"><g fill="#000"> <g stroke="none"> </g> </g> </g></g> </g> <g transform="translate(82.77512,27.05043)"> <g stroke="#000" fill="#000"> <g stroke="none" transform="scale(-1,1) translate(-71.87001037597655,13.612869262695309) scale(-1,-1)"><g fill="#000"> <g stroke="none"> </g> </g> </g></g> </g> <g transform="translate(101.16959,27.05043)"> <g stroke="#000" fill="#000"> <g stroke="none" transform="scale(-1,1) translate(-71.87001037597655,13.612869262695309) scale(-1,-1)"><g fill="#000"> <g stroke="none"> </g> </g> </g></g> </g> <g transform="translate(119.56406,27.05043)"> <g stroke="#000" fill="#000"> <g stroke="none" transform="scale(-1,1) translate(-71.87001037597655,13.612869262695309) scale(-1,-1)"><g fill="#000"> <g stroke="none"> </g> </g> </g></g> </g> <g transform="translate(137.95853,27.05043)"> <g stroke="#000" fill="#000"> <g stroke="none" transform="scale(-1,1) translate(-71.87001037597655,13.612869262695309) scale(-1,-1)"><g fill="#000"> <g stroke="none"> </g> </g> </g></g> </g> <clipPath id="pgf56ec7cad29d58f1f710adfa9e0c78228055277fbcp1"><path d=" M 0.0 0.0 L 165.55023 0.0 L 165.55023 85.88287 L 0.0 85.88287 Z  "></path> </clipPath> <g clip-path="url(#pgf56ec7cad29d58f1f710adfa9e0c78228055277fbcp1)"> <g stroke="#8c8c8c" fill="#8c8c8c"> <path d=" M 0.0 29.24597 L 1.05444 29.16647 L 2.1089 29.19992 L 3.16336 29.35493 L 4.21782 29.63763 L 5.27228 30.05144 L 6.32674 30.59656 L 7.3812 31.27092 L 8.43565 32.06885 L 9.49011 32.9818 L 10.54457 33.99867 L 11.59903 35.1055 L 12.65349 36.286 L 13.70795 37.5215 L 14.76239 38.79181 L 15.81686 40.07588 L 16.8713 41.35095 L 17.92577 42.59413 L 18.98022 43.78381 L 20.03468 44.89758 L 21.08914 45.91383 L 22.1436 46.81499 L 23.19806 47.58319 L 24.25252 48.2027 L 25.30698 48.66302 L 26.36143 48.95535 L 27.4159 49.06169 L 28.47035 49.01326 L 29.52481 48.78032 L 30.57927 48.37447 L 31.63373 47.80649 L 32.68817 47.08655 L 33.74263 46.22829 L 34.79709 45.2479 L 35.85155 44.16472 L 36.906 42.99826 L 37.96046 41.7701 L 39.01492 40.50311 L 40.06938 39.2197 L 41.12384 37.94228 L 42.1783 36.69273 L 43.23276 35.49196 L 44.28722 34.3586 L 45.34167 33.30994 L 46.39613 32.36098 L 47.45059 31.5237 L 48.50504 30.80734 L 49.5595 30.21863 L 50.61395 29.76094 L 51.66841 29.43486 L 52.72287 29.23773 L 53.77733 29.16457 L 54.83179 29.2076 L 55.88625 29.35654 L 56.9407 29.59973 L 57.99516 29.92339 L 59.04962 30.31258 L 60.10408 30.75189 L 61.15854 31.22514 L 62.213 31.71635 L 63.26746 32.20996 L 64.3219 32.69113 L 65.37636 33.14622 L 66.43082 33.56325 L 67.48528 33.93146 L 68.53973 34.2425 L 69.5942 34.4899 L 70.64865 34.66911 L 71.70311 34.77821 L 72.75757 34.81715 L 73.81203 34.78783 L 74.86649 34.69438 L 75.92094 34.54253 L 76.9754 34.33926 L 78.02986 34.0932 L 79.08432 33.81366 L 80.13876 33.51053 L 81.19322 33.19414 L 82.24768 32.8749 L 83.30214 32.56277 L 84.3566 32.2671 L 85.41106 31.99646 L 86.46552 31.75844 L 87.51997 31.55933 L 88.57443 31.40384 L 89.62889 31.2954 L 90.68335 31.23586 L 91.73781 31.22536 L 92.79227 31.26265 L 93.84673 31.34512 L 94.90118 31.46867 L 95.95563 31.62814 L 97.01009 31.8175 L 98.06454 32.02986 L 99.119 32.25783 L 100.17346 32.49388 L 101.22792 32.73024 L 102.28238 32.9595 L 103.33684 33.17468 L 104.3913 33.36938 L 105.44576 33.53796 L 106.50027 33.6759 L 107.55464 33.77953 L 108.60916 33.84659 L 109.66351 33.8759 L 110.71805 33.86739 L 111.77257 33.82242 L 112.82692 33.74326 L 113.88145 33.63318 L 114.9358 33.49658 L 115.99033 33.3383 L 117.04485 33.16386 L 118.09921 32.97925 L 119.15373 32.7905 L 120.2081 32.60376 L 121.26262 32.4248 L 122.31714 32.25917 L 123.3715 32.11188 L 124.42603 31.98717 L 125.48038 31.88844 L 126.53491 31.8184 L 127.58943 31.77861 L 128.64378 31.76965 L 129.69832 31.79124 L 130.75267 31.84204 L 131.80719 31.9198 L 132.86171 32.02159 L 133.91608 32.14362 L 134.9706 32.2816 L 136.02496 32.43086 L 137.07948 32.58646 L 138.134 32.74323 L 139.18837 32.89622 L 140.24289 33.04062 L 141.29724 33.17197 L 142.35178 33.28638 L 143.4063 33.38043 L 144.46065 33.4515 L 145.51518 33.49782 L 146.56953 33.51825 L 147.62405 33.51265 L 148.67857 33.48167 L 149.73294 33.4267 L 150.78746 33.34988 L 151.84183 33.25415 L 152.89635 33.14276 L 153.95087 33.01958 L 155.00523 32.88878 L 156.05975 32.7546 L 157.1141 32.62143 L 158.16864 32.49345 L 159.22316 32.37473 L 160.27751 32.26889 L 161.33205 32.17908 L 162.3864 32.10796 L 163.44092 32.05751 L 164.49544 32.02899 L 165.5498 32.02301  " fill="none"></path> </g> <g stroke="#8c8c8c" fill="#8c8c8c"> <path d=" M 0.0 37.92422 L 1.05444 37.96014 L 2.1089 37.82425 L 3.16336 37.5124 L 4.21782 37.02574 L 5.27228 36.37082 L 6.32674 35.56004 L 7.3812 34.6103 L 8.43565 33.54425 L 9.49011 32.38928 L 10.54457 31.17642 L 11.59903 29.94044 L 12.65349 28.7189 L 13.70795 27.55122 L 14.76239 26.47743 L 15.81686 25.53726 L 16.8713 24.76979 L 17.92577 24.2116 L 18.98022 23.89519 L 20.03468 23.85007 L 21.08914 24.1007 L 22.1436 24.66383 L 23.19806 25.5517 L 24.25252 26.76927 L 25.30698 28.31284 L 26.36143 30.17236 L 27.4159 32.33044 L 28.47035 34.76093 L 29.52481 37.43307 L 30.57927 40.30756 L 31.63373 43.34094 L 32.68817 46.48479 L 33.74263 49.68651 L 34.79709 52.89055 L 35.85155 56.04184 L 36.906 59.08253 L 37.96046 61.95659 L 39.01492 64.61241 L 40.06938 66.99893 L 41.12384 69.07109 L 42.1783 70.78874 L 43.23276 72.12198 L 44.28722 73.03929 L 45.34167 73.51982 L 46.39613 73.57463 L 47.45059 73.18407 L 48.50504 72.36081 L 49.5595 71.1196 L 50.61395 69.48537 L 51.66841 67.48758 L 52.72287 65.16832 L 53.77733 62.56845 L 54.83179 59.73738 L 55.88625 56.72987 L 56.9407 53.5981 L 57.99516 50.4006 L 59.04962 47.1937 L 60.10408 44.03255 L 61.15854 40.96985 L 62.213 38.05612 L 63.26746 35.33539 L 64.3219 32.84827 L 65.37636 30.6275 L 66.43082 28.6996 L 67.48528 27.08463 L 68.53973 25.7943 L 69.5942 24.83282 L 70.64865 24.19835 L 71.70311 23.87968 L 72.75757 23.86058 L 73.81203 24.1191 L 74.86649 24.62637 L 75.92094 25.3502 L 76.9754 26.25537 L 78.02986 27.30286 L 79.08432 28.45299 L 80.13876 29.66606 L 81.19322 30.90228 L 82.24768 32.12335 L 83.30214 33.29398 L 84.3566 34.38226 L 85.41106 35.36006 L 86.46552 36.20363 L 87.51997 36.89426 L 88.57443 37.41911 L 89.62889 37.77017 L 90.68335 37.94496 L 91.73781 37.94669 L 92.79227 37.78297 L 93.84673 37.46611 L 94.90118 37.01265 L 95.95563 36.44243 L 97.01009 35.77765 L 98.06454 35.04279 L 99.119 34.2635 L 100.17346 33.46527 L 101.22792 32.6741 L 102.28238 31.91382 L 103.33684 31.20697 L 104.3913 30.57352 L 105.44576 30.03082 L 106.50027 29.59222 L 107.55464 29.26825 L 108.60916 29.06471 L 109.66351 28.98402 L 110.71805 29.02493 L 111.77257 29.18192 L 112.82692 29.44647 L 113.88145 29.80717 L 114.9358 30.24925 L 115.99033 30.75676 L 117.04485 31.3118 L 118.09921 31.89531 L 119.15373 32.48819 L 120.2081 33.07138 L 121.26262 33.62714 L 122.31714 34.13852 L 123.3715 34.59052 L 124.42603 34.97058 L 125.48038 35.26881 L 126.53491 35.47763 L 127.58943 35.59291 L 128.64378 35.61357 L 129.69832 35.54108 L 130.75267 35.3802 L 131.80719 35.13828 L 132.86171 34.8248 L 133.91608 34.45148 L 134.9706 34.03163 L 136.02496 33.5796 L 137.07948 33.1104 L 138.134 32.63945 L 139.18837 32.1816 L 140.24289 31.75114 L 141.29724 31.36116 L 142.35178 31.02293 L 143.4063 30.74635 L 144.46065 30.53886 L 145.51518 30.40527 L 146.56953 30.34863 L 147.62405 30.36897 L 148.67857 30.46399 L 149.73294 30.62929 L 150.78746 30.85817 L 151.84183 31.14189 L 152.89635 31.47055 L 153.95087 31.83278 L 155.00523 32.2162 L 156.05975 32.6084 L 157.1141 32.99657 L 158.16864 33.36858 L 159.22316 33.71275 L 160.27751 34.01866 L 161.33205 34.27733 L 162.3864 34.4813 L 163.44092 34.62502 L 164.49544 34.70506 L 165.5498 34.71999  " fill="none"></path> </g> <g stroke="#8c8c8c" fill="#8c8c8c"> <path d=" M 0.0 30.11377 L 1.05444 30.1133 L 2.1089 30.1984 L 3.16336 30.36928 L 4.21782 30.62344 L 5.27228 30.95569 L 6.32674 31.35783 L 7.3812 31.81982 L 8.43565 32.32872 L 9.49011 32.86993 L 10.54457 33.42732 L 11.59903 33.98367 L 12.65349 34.52081 L 13.70795 35.02083 L 14.76239 35.46591 L 15.81686 35.8396 L 16.8713 36.12654 L 17.92577 36.31367 L 18.98022 36.39069 L 20.03468 36.34967 L 21.08914 36.18608 L 22.1436 35.89958 L 23.19806 35.49281 L 24.25252 34.97234 L 25.30698 34.34894 L 26.36143 33.63683 L 27.4159 32.85332 L 28.47035 32.01952 L 29.52481 31.15825 L 30.57927 30.29549 L 31.63373 29.45796 L 32.68817 28.67351 L 33.74263 27.97041 L 34.79709 27.37622 L 35.85155 26.91724 L 36.906 26.61781 L 37.96046 26.49982 L 39.01492 26.58127 L 40.06938 26.87686 L 41.12384 27.39708 L 42.1783 28.14644 L 43.23276 29.12598 L 44.28722 30.33073 L 45.34167 31.75032 L 46.39613 33.36922 L 47.45059 35.16751 L 48.50504 37.12027 L 49.5595 39.19836 L 50.61395 41.3692 L 51.66841 43.5967 L 52.72287 45.84407 L 53.77733 48.07124 L 54.83179 50.23842 L 55.88625 52.30765 L 56.9407 54.23872 L 57.99516 55.99683 L 59.04962 57.54887 L 60.10408 58.86517 L 61.15854 59.91925 L 62.213 60.69362 L 63.26746 61.17027 L 64.3219 61.34233 L 65.37636 61.20349 L 66.43082 60.76175 L 67.48528 60.02002 L 68.53973 58.99658 L 69.5942 57.70833 L 70.64865 56.18059 L 71.70311 54.44402 L 72.75757 52.53058 L 73.81203 50.47462 L 74.86649 48.31613 L 75.92094 46.09402 L 76.9754 43.84683 L 78.02986 41.6151 L 79.08432 39.43652 L 80.13876 37.34628 L 81.19322 35.37784 L 82.24768 33.56105 L 83.30214 31.92114 L 84.3566 30.47856 L 85.41106 29.24924 L 86.46552 28.24416 L 87.51997 27.46906 L 88.57443 26.92365 L 89.62889 26.60333 L 90.68335 26.49875 L 91.73781 26.59543 L 92.79227 26.87546 L 93.84673 27.31793 L 94.90118 27.89839 L 95.95563 28.59058 L 97.01009 29.36736 L 98.06454 30.20049 L 99.119 31.06174 L 100.17346 31.92451 L 101.22792 32.76259 L 102.28238 33.55266 L 103.33684 34.27368 L 104.3913 34.90778 L 105.44576 35.44014 L 106.50027 35.86017 L 107.55464 36.16023 L 108.60916 36.33745 L 109.66351 36.39209 L 110.71805 36.32794 L 111.77257 36.15259 L 112.82692 35.87616 L 113.88145 35.51134 L 114.9358 35.07344 L 115.99033 34.57877 L 117.04485 34.04474 L 118.09921 33.48965 L 119.15373 32.93149 L 120.2081 32.38774 L 121.26262 31.87442 L 122.31714 31.40654 L 123.3715 30.99713 L 124.42603 30.65675 L 125.48038 30.39348 L 126.53491 30.21318 L 127.58943 30.11855 L 128.64378 30.10956 L 129.69832 30.18396 L 130.75267 30.33662 L 131.80719 30.56024 L 132.86171 30.84575 L 133.91608 31.18222 L 134.9706 31.55748 L 136.02496 31.95866 L 137.07948 32.37247 L 138.134 32.78535 L 139.18837 33.18445 L 140.24289 33.55756 L 141.29724 33.89359 L 142.35178 34.18312 L 143.4063 34.41805 L 144.46065 34.59244 L 145.51518 34.7026 L 146.56953 34.74641 L 147.62405 34.72433 L 148.67857 34.63875 L 149.73294 34.49388 L 150.78746 34.2957 L 151.84183 34.05199 L 152.89635 33.77136 L 153.95087 33.46358 L 155.00523 33.13922 L 156.05975 32.80875 L 157.1141 32.483 L 158.16864 32.17195 L 159.22316 31.88525 L 160.27751 31.63156 L 161.33205 31.41801 L 162.3864 31.2507 L 163.44092 31.13388 L 164.49544 31.07018 L 165.5498 31.0605  " fill="none"></path> </g> <g stroke="#8c8c8c" fill="#8c8c8c"> <path d=" M 0.0 32.1387 L 1.05444 32.14075 L 2.1089 32.16171 L 3.16336 32.20143 L 4.21782 32.25912 L 5.27228 32.33342 L 6.32674 32.42233 L 7.3812 32.52342 L 8.43565 32.63373 L 9.49011 32.74994 L 10.54457 32.86848 L 11.59903 32.9856 L 12.65349 33.09741 L 13.70795 33.20015 L 14.76239 33.2902 L 15.81686 33.36429 L 16.8713 33.41948 L 17.92577 33.45337 L 18.98022 33.4642 L 20.03468 33.45082 L 21.08914 33.41283 L 22.1436 33.35066 L 23.19806 33.26544 L 24.25252 33.15907 L 25.30698 33.03426 L 26.36143 32.89435 L 27.4159 32.74323 L 28.47035 32.58545 L 29.52481 32.42572 L 30.57927 32.26918 L 31.63373 32.12099 L 32.68817 31.98622 L 33.74263 31.86983 L 34.79709 31.77634 L 35.85155 31.70973 L 36.906 31.67343 L 37.96046 31.67 L 39.01492 31.70107 L 40.06938 31.76733 L 41.12384 31.86852 L 42.1783 32.00307 L 43.23276 32.16852 L 44.28722 32.3613 L 45.34167 32.57677 L 46.39613 32.80937 L 47.45059 33.05278 L 48.50504 33.30005 L 49.5595 33.54355 L 50.61395 33.7754 L 51.66841 33.98758 L 52.72287 34.17216 L 53.77733 34.32137 L 54.83179 34.42795 L 55.88625 34.4855 L 56.9407 34.48811 L 57.99516 34.43123 L 59.04962 34.3115 L 60.10408 34.12654 L 61.15854 33.87581 L 62.213 33.55992 L 63.26746 33.18117 L 64.3219 32.7433 L 65.37636 32.25148 L 66.43082 31.71219 L 67.48528 31.13332 L 68.53973 30.52356 L 69.5942 29.89302 L 70.64865 29.25217 L 71.70311 28.61185 L 72.75757 27.98344 L 73.81203 27.37868 L 74.86649 26.80809 L 75.92094 26.28233 L 76.9754 25.81172 L 78.02986 25.40488 L 79.08432 25.06912 L 80.13876 24.81197 L 81.19322 24.63815 L 82.24768 24.55055 L 83.30214 24.55096 L 84.3566 24.63791 L 85.41106 24.8118 L 86.46552 25.06929 L 87.51997 25.40472 L 88.57443 25.81148 L 89.62889 26.28218 L 90.68335 26.80792 L 91.73781 27.37843 L 92.79227 27.98328 L 93.84673 28.61162 L 94.90118 29.25194 L 95.95563 29.89273 L 97.01009 30.52336 L 98.06454 31.13303 L 99.119 31.71198 L 100.17346 32.25131 L 101.22792 32.74312 L 102.28238 33.18102 L 103.33684 33.55977 L 104.3913 33.8757 L 105.44576 34.12646 L 106.50027 34.31145 L 107.55464 34.43121 L 108.60916 34.48808 L 109.66351 34.4855 L 110.71805 34.428 L 111.77257 34.3214 L 112.82692 34.17224 L 113.88145 33.98764 L 114.9358 33.77553 L 115.99033 33.54367 L 117.04485 33.30014 L 118.09921 33.05289 L 119.15373 32.80943 L 120.2081 32.57686 L 121.26262 32.36136 L 122.31714 32.16856 L 123.3715 32.00313 L 124.42603 31.86856 L 125.48038 31.76736 L 126.53491 31.70108 L 127.58943 31.67001 L 128.64378 31.67343 L 129.69832 31.70973 L 130.75267 31.7763 L 131.80719 31.86978 L 132.86171 31.98618 L 133.91608 32.12094 L 134.9706 32.26912 L 136.02496 32.42566 L 137.07948 32.58539 L 138.134 32.7432 L 139.18837 32.89427 L 140.24289 33.0342 L 141.29724 33.159 L 142.35178 33.2654 L 143.4063 33.35065 L 144.46065 33.4128 L 145.51518 33.45082 L 146.56953 33.46419 L 147.62405 33.45338 L 148.67857 33.4195 L 149.73294 33.36432 L 150.78746 33.29022 L 151.84183 33.20018 L 152.89635 33.09744 L 153.95087 32.98561 L 155.00523 32.86853 L 156.05975 32.74997 L 157.1141 32.63379 L 158.16864 32.52345 L 159.22316 32.42236 L 160.27751 32.33345 L 161.33205 32.25914 L 162.3864 32.20145 L 163.44092 32.16171 L 164.49544 32.14075 L 165.5498 32.13872  " fill="none"></path> </g> <g stroke="#8c8c8c" fill="#8c8c8c"> <path d=" M 0.0 33.90073 L 1.05444 33.89378 L 2.1089 33.8483 L 3.16336 33.76486 L 4.21782 33.64536 L 5.27228 33.49284 L 6.32674 33.31165 L 7.3812 33.10687 L 8.43565 32.8847 L 9.49011 32.652 L 10.54457 32.41599 L 11.59903 32.18425 L 12.65349 31.96443 L 13.70795 31.76399 L 14.76239 31.58987 L 15.81686 31.44833 L 16.8713 31.34483 L 17.92577 31.2837 L 18.98022 31.26788 L 20.03468 31.29916 L 21.08914 31.37782 L 22.1436 31.5024 L 23.19806 31.67017 L 24.25252 31.87694 L 25.30698 32.11699 L 26.36143 32.38347 L 27.4159 32.66858 L 28.47035 32.96347 L 29.52481 33.25903 L 30.57927 33.5456 L 31.63373 33.81366 L 32.68817 34.05399 L 33.74263 34.25793 L 34.79709 34.41771 L 35.85155 34.52678 L 36.906 34.57993 L 37.96046 34.57355 L 39.01492 34.50595 L 40.06938 34.37718 L 41.12384 34.18913 L 42.1783 33.94606 L 43.23276 33.65361 L 44.28722 33.31944 L 45.34167 32.95282 L 46.39613 32.56438 L 47.45059 32.16573 L 48.50504 31.76921 L 49.5595 31.38783 L 50.61395 31.03444 L 51.66841 30.72163 L 52.72287 30.46106 L 53.77733 30.26355 L 54.83179 30.13828 L 55.88625 30.09242 L 56.9407 30.1314 L 57.99516 30.25797 L 59.04962 30.47229 L 60.10408 30.77223 L 61.15854 31.15251 L 62.213 31.60538 L 63.26746 32.12039 L 64.3219 32.68468 L 65.37636 33.28331 L 66.43082 33.89954 L 67.48528 34.5148 L 68.53973 35.1098 L 69.5942 35.66478 L 70.64865 36.15916 L 71.70311 36.5738 L 72.75757 36.88994 L 73.81203 37.08997 L 74.86649 37.15912 L 75.92094 37.08449 L 76.9754 36.85565 L 78.02986 36.46619 L 79.08432 35.91261 L 80.13876 35.19476 L 81.19322 34.31671 L 82.24768 33.28638 L 83.30214 32.11507 L 84.3566 30.81734 L 85.41106 29.4114 L 86.46552 27.9186 L 87.51997 26.36232 L 88.57443 24.76811 L 89.62889 23.1631 L 90.68335 21.5759 L 91.73781 20.03401 L 92.79227 18.56558 L 93.84673 17.19865 L 94.90118 15.95819 L 95.95563 14.86652 L 97.01009 13.94676 L 98.06454 13.2147 L 99.119 12.68591 L 100.17346 12.3706 L 101.22792 12.27838 L 102.28238 12.39432 L 103.33684 12.73459 L 104.3913 13.28648 L 105.44576 14.04 L 106.50027 14.97981 L 107.55464 16.08852 L 108.60916 17.34445 L 109.66351 18.72353 L 110.71805 20.20155 L 111.77257 21.74971 L 112.82692 23.34026 L 113.88145 24.94574 L 114.9358 26.53677 L 115.99033 28.08714 L 117.04485 29.57176 L 118.09921 30.96666 L 119.15373 32.25127 L 120.2081 33.4075 L 121.26262 34.42165 L 122.31714 35.28223 L 123.3715 35.98192 L 124.42603 36.51729 L 125.48038 36.88893 L 126.53491 37.10011 L 127.58943 37.1583 L 128.64378 37.0741 L 129.69832 36.86023 L 130.75267 36.53242 L 131.80719 36.10811 L 132.86171 35.60588 L 133.91608 35.0456 L 134.9706 34.44737 L 136.02496 33.8311 L 137.07948 33.21588 L 138.134 32.62027 L 139.18837 32.06068 L 140.24289 31.55194 L 141.29724 31.10677 L 142.35178 30.73488 L 143.4063 30.4443 L 144.46065 30.23965 L 145.51518 30.12274 L 146.56953 30.09341 L 147.62405 30.14835 L 148.67857 30.28198 L 149.73294 30.48695 L 150.78746 30.75389 L 151.84183 31.07176 L 152.89635 31.42886 L 153.95087 31.81264 L 155.00523 32.20993 L 156.05975 32.60815 L 157.1141 32.99466 L 158.16864 33.35823 L 159.22316 33.6882 L 160.27751 33.97546 L 161.33205 34.21281 L 162.3864 34.39438 L 163.44092 34.51643 L 164.49544 34.57727 L 165.5498 34.57693  " fill="none"></path> </g> <g stroke="#8c8c8c" fill="#8c8c8c"> <path d=" M 0.0 32.91754 L 1.05444 32.91606 L 2.1089 32.90805 L 3.16336 32.89369 L 4.21782 32.87329 L 5.27228 32.84743 L 6.32674 32.81685 L 7.3812 32.78242 L 8.43565 32.74522 L 9.49011 32.7064 L 10.54457 32.66719 L 11.59903 32.62885 L 12.65349 32.59262 L 13.70795 32.55975 L 14.76239 32.53137 L 15.81686 32.50848 L 16.8713 32.49196 L 17.92577 32.48245 L 18.98022 32.48041 L 20.03468 32.48607 L 21.08914 32.49942 L 22.1436 32.52017 L 23.19806 32.54782 L 24.25252 32.58165 L 25.30698 32.62065 L 26.36143 32.6637 L 27.4159 32.70949 L 28.47035 32.75658 L 29.52481 32.8035 L 30.57927 32.8487 L 31.63373 32.89069 L 32.68817 32.92801 L 33.74263 32.95937 L 34.79709 32.98357 L 35.85155 32.99965 L 36.906 33.0069 L 37.96046 33.00484 L 39.01492 32.99332 L 40.06938 32.97244 L 41.12384 32.94263 L 42.1783 32.90462 L 43.23276 32.85942 L 44.28722 32.80827 L 45.34167 32.75272 L 46.39613 32.69438 L 47.45059 32.6351 L 48.50504 32.57675 L 49.5595 32.52126 L 50.61395 32.4705 L 51.66841 32.42628 L 52.72287 32.39021 L 53.77733 32.36374 L 54.83179 32.34805 L 55.88625 32.34395 L 56.9407 32.352 L 57.99516 32.37238 L 59.04962 32.40475 L 60.10408 32.44861 L 61.15854 32.50288 L 62.213 32.56622 L 63.26746 32.6369 L 64.3219 32.71292 L 65.37636 32.79205 L 66.43082 32.87187 L 67.48528 32.9498 L 68.53973 33.02328 L 69.5942 33.08978 L 70.64865 33.14679 L 71.70311 33.19215 L 72.75757 33.22385 L 73.81203 33.2402 L 74.86649 33.24005 L 75.92094 33.22258 L 76.9754 33.18747 L 78.02986 33.135 L 79.08432 33.06595 L 80.13876 32.9816 L 81.19322 32.88382 L 82.24768 32.775 L 83.30214 32.65793 L 84.3566 32.53581 L 85.41106 32.4122 L 86.46552 32.2909 L 87.51997 32.17587 L 88.57443 32.07112 L 89.62889 31.9806 L 90.68335 31.90822 L 91.73781 31.85747 L 92.79227 31.83162 L 93.84673 31.83351 L 94.90118 31.86536 L 95.95563 31.92882 L 97.01009 32.02493 L 98.06454 32.15396 L 99.119 32.31543 L 100.17346 32.50824 L 101.22792 32.73029 L 102.28238 32.979 L 103.33684 33.25104 L 104.3913 33.54245 L 105.44576 33.8487 L 106.50027 34.16484 L 107.55464 34.48549 L 108.60916 34.80525 L 109.66351 35.1184 L 110.71805 35.4192 L 111.77257 35.7023 L 112.82692 35.96233 L 113.88145 36.19426 L 114.9358 36.39397 L 115.99033 36.55763 L 117.04485 36.68172 L 118.09921 36.76375 L 119.15373 36.8024 L 120.2081 36.79741 L 121.26262 36.7496 L 122.31714 36.65775 L 123.3715 36.52455 L 124.42603 36.35266 L 125.48038 36.1456 L 126.53491 35.90686 L 127.58943 35.64127 L 128.64378 35.35391 L 129.69832 35.04982 L 130.75267 34.73476 L 131.80719 34.41432 L 132.86171 34.09412 L 133.91608 33.77975 L 134.9706 33.47643 L 136.02496 33.18896 L 137.07948 32.92172 L 138.134 32.67865 L 139.18837 32.46286 L 140.24289 32.2769 L 141.29724 32.12254 L 142.35178 32.00076 L 143.4063 31.91196 L 144.46065 31.85564 L 145.51518 31.83057 L 146.56953 31.83507 L 147.62405 31.86668 L 148.67857 31.9225 L 149.73294 31.99924 L 150.78746 32.09326 L 151.84183 32.20062 L 152.89635 32.3174 L 153.95087 32.43958 L 155.00523 32.56314 L 156.05975 32.68445 L 157.1141 32.79993 L 158.16864 32.90654 L 159.22316 33.00153 L 160.27751 33.08261 L 161.33205 33.14812 L 162.3864 33.19678 L 163.44092 33.22797 L 164.49544 33.24158 L 165.5498 33.23798  " fill="none"></path> </g> <g stroke="#8c8c8c" fill="#8c8c8c"> <path d=" M 0.0 31.67586 L 1.05444 31.68486 L 2.1089 31.7276 L 3.16336 31.80327 L 4.21782 31.90994 L 5.27228 32.04462 L 6.32674 32.20337 L 7.3812 32.38148 L 8.43565 32.57343 L 9.49011 32.77318 L 10.54457 32.97444 L 11.59903 33.17067 L 12.65349 33.35544 L 13.70795 33.5225 L 14.76239 33.66615 L 15.81686 33.78137 L 16.8713 33.86386 L 17.92577 33.91031 L 18.98022 33.91875 L 20.03468 33.88809 L 21.08914 33.81863 L 22.1436 33.71202 L 23.19806 33.571 L 24.25252 33.39941 L 25.30698 33.20236 L 26.36143 32.9858 L 27.4159 32.75627 L 28.47035 32.52112 L 29.52481 32.28775 L 30.57927 32.06384 L 31.63373 31.85684 L 32.68817 31.6738 L 33.74263 31.52112 L 34.79709 31.40443 L 35.85155 31.32823 L 36.906 31.29584 L 37.96046 31.30925 L 39.01492 31.36894 L 40.06938 31.474 L 41.12384 31.62207 L 42.1783 31.8091 L 43.23276 32.03004 L 44.28722 32.27847 L 45.34167 32.54689 L 46.39613 32.82704 L 47.45059 33.11012 L 48.50504 33.38705 L 49.5595 33.64868 L 50.61395 33.88612 L 51.66841 34.09106 L 52.72287 34.25616 L 53.77733 34.37495 L 54.83179 34.44243 L 55.88625 34.45522 L 56.9407 34.41129 L 57.99516 34.3107 L 59.04962 34.15527 L 60.10408 33.94841 L 61.15854 33.69553 L 62.213 33.40352 L 63.26746 33.08075 L 64.3219 32.73685 L 65.37636 32.38231 L 66.43082 32.02826 L 67.48528 31.68626 L 68.53973 31.36775 L 69.5942 31.08365 L 70.64865 30.84447 L 71.70311 30.65909 L 72.75757 30.53535 L 73.81203 30.47942 L 74.86649 30.49512 L 75.92094 30.5844 L 76.9754 30.74707 L 78.02986 30.98024 L 79.08432 31.27888 L 80.13876 31.63591 L 81.19322 32.04187 L 82.24768 32.48534 L 83.30214 32.9535 L 84.3566 33.43239 L 85.41106 33.90695 L 86.46552 34.3617 L 87.51997 34.78099 L 88.57443 35.15015 L 89.62889 35.45503 L 90.68335 35.68283 L 91.73781 35.82304 L 92.79227 35.86705 L 93.84673 35.80872 L 94.90118 35.64513 L 95.95563 35.37628 L 97.01009 35.00526 L 98.06454 34.53876 L 99.119 33.98645 L 100.17346 33.36093 L 101.22792 32.67831 L 102.28238 31.9566 L 103.33684 31.21625 L 104.3913 30.4793 L 105.44576 29.76949 L 106.50027 29.1104 L 107.55464 28.52666 L 108.60916 28.04115 L 109.66351 27.67632 L 110.71805 27.45279 L 111.77257 27.3882 L 112.82692 27.4978 L 113.88145 27.79355 L 114.9358 28.28246 L 115.99033 28.96886 L 117.04485 29.85197 L 118.09921 30.92642 L 119.15373 32.18246 L 120.2081 33.6055 L 121.26262 35.17863 L 122.31714 36.87877 L 123.3715 38.6799 L 124.42603 40.55405 L 125.48038 42.47018 L 126.53491 44.3953 L 127.58943 46.2958 L 128.64378 48.13803 L 129.69832 49.88771 L 130.75267 51.51265 L 131.80719 52.98344 L 132.86171 54.27045 L 133.91608 55.35011 L 134.9706 56.20355 L 136.02496 56.81085 L 137.07948 57.16003 L 138.134 57.23807 L 139.18837 57.0744 L 140.24289 56.6359 L 141.29724 55.9464 L 142.35178 55.01665 L 143.4063 53.86385 L 144.46065 52.5127 L 145.51518 50.98817 L 146.56953 49.3178 L 147.62405 47.53345 L 148.67857 45.66846 L 149.73294 43.75592 L 150.78746 41.8299 L 151.84183 39.92447 L 152.89635 38.07108 L 153.95087 36.30006 L 155.00523 34.64 L 156.05975 33.11453 L 157.1141 31.74518 L 158.16864 30.54813 L 159.22316 29.53647 L 160.27751 28.71877 L 161.33205 28.0979 L 162.3864 27.67389 L 163.44092 27.44131 L 164.49544 27.39102 L 165.5498 27.51018  " fill="none"></path> </g> <g stroke="#1f5fad" fill="#1f5fad"> <g stroke-width="1.2"> <path d=" M 0.0 31.61314 L 1.05444 31.57169 L 2.1089 31.56454 L 3.16336 31.59619 L 4.21782 31.67087 L 5.27228 31.7926 L 6.32674 31.96497 L 7.3812 32.19157 L 8.43565 32.47523 L 9.49011 32.81886 L 10.54457 33.22484 L 11.59903 33.69531 L 12.65349 34.23195 L 13.70795 34.83627 L 14.76239 35.5091 L 15.81686 36.25157 L 16.8713 37.06374 L 17.92577 37.94557 L 18.98022 38.89728 L 20.03468 39.91782 L 21.08914 41.00566 L 22.1436 42.16 L 23.19806 43.37848 L 24.25252 44.6577 L 25.30698 45.99538 L 26.36143 47.38818 L 27.4159 48.81934 L 28.47035 50.31665 L 29.52481 51.84398 L 30.57927 53.40117 L 31.63373 54.98392 L 32.68817 56.5832 L 33.74263 58.1898 L 34.79709 59.79305 L 35.85155 61.38452 L 36.906 62.95105 L 37.96046 64.48048 L 39.01492 65.96239 L 40.06938 67.38278 L 41.12384 68.72914 L 42.1783 69.98712 L 43.23276 71.14783 L 44.28722 72.19244 L 45.34167 73.10562 L 46.39613 73.89633 L 47.45059 74.53534 L 48.50504 75.01782 L 49.5595 75.33424 L 50.61395 75.47835 L 51.66841 75.44203 L 52.72287 75.22607 L 53.77733 74.8242 L 54.83179 74.23642 L 55.88625 73.46748 L 56.9407 72.51569 L 57.99516 71.3894 L 59.04962 70.09528 L 60.10408 68.64175 L 61.15854 67.0373 L 62.213 65.29749 L 63.26746 63.43118 L 64.3219 61.45581 L 65.37636 59.3827 L 66.43082 57.23279 L 67.48528 55.01663 L 68.53973 52.75412 L 69.5942 50.4586 L 70.64865 48.14697 L 71.70311 45.83511 L 72.75757 43.53722 L 73.81203 41.26613 L 74.86649 39.0356 L 75.92094 36.85687 L 76.9754 34.73973 L 78.02986 32.69379 L 79.08432 30.72606 L 80.13876 28.84341 L 81.19322 27.05113 L 82.24768 25.35287 L 83.30214 23.7517 L 84.3566 22.24773 L 85.41106 20.84445 L 86.46552 19.54303 L 87.51997 18.34288 L 88.57443 17.24377 L 89.62889 16.24614 L 90.68335 15.35078 L 91.73781 14.55678 L 92.79227 13.86494 L 93.84673 13.278 L 94.90118 12.79666 L 95.95563 12.42184 L 97.01009 12.15918 L 98.06454 12.00992 L 99.119 11.97919 L 100.17346 12.07109 L 101.22792 12.29337 L 102.28238 12.63327 L 103.33684 13.1133 L 104.3913 13.73096 L 105.44576 14.4899 L 106.50027 15.3911 L 107.55464 16.43622 L 108.60916 17.624 L 109.66351 18.95209 L 110.71805 20.41812 L 111.77257 22.01488 L 112.82692 23.73486 L 113.88145 25.56921 L 114.9358 27.50435 L 115.99033 29.52748 L 117.04485 31.62231 L 118.09921 33.77026 L 119.15373 35.95207 L 120.2081 38.1465 L 121.26262 40.33394 L 122.31714 42.48787 L 123.3715 44.58534 L 124.42603 46.6034 L 125.48038 48.51917 L 126.53491 50.30888 L 127.58943 51.9518 L 128.64378 53.42859 L 129.69832 54.72011 L 130.75267 55.81131 L 131.80719 56.69032 L 132.86171 57.34511 L 133.91608 57.77002 L 134.9706 57.9635 L 136.02496 57.92203 L 137.07948 57.6487 L 138.134 57.14453 L 139.18837 56.45084 L 140.24289 55.54462 L 141.29724 54.45776 L 142.35178 53.20645 L 143.4063 51.81192 L 144.46065 50.29994 L 145.51518 48.69432 L 146.56953 47.02011 L 147.62405 45.30415 L 148.67857 43.57321 L 149.73294 41.85263 L 150.78746 40.16737 L 151.84183 38.5414 L 152.89635 36.99579 L 153.95087 35.55016 L 155.00523 34.22214 L 156.05975 33.02518 L 157.1141 31.97089 L 158.16864 31.06667 L 159.22316 30.31763 L 160.27751 29.72574 L 161.33205 29.28874 L 162.3864 29.00278 L 163.44092 28.86017 L 164.49544 28.85117 L 165.5498 28.96362  " fill="none"></path> </g> </g> </g> <g stroke="#000" fill="#000"> <g stroke="#000" fill="#000"> <path d=" M 29.7917 49.07593 C 29.7917 50.29095 28.80673 51.27592 27.5917 51.27592 C 26.37668 51.27592 25.39171 50.29095 25.39171 49.07593 C 25.39171 47.8609 26.37668 46.87593 27.5917 46.87593 C 28.80673 46.87593 29.7917 47.8609 29.7917 49.07593 Z M 27.5917 49.07593  "></path> <path d=" M 48.18617 73.61389 C 48.18617 74.82892 47.2012 75.81389 45.98618 75.81389 C 44.77115 75.81389 43.78618 74.82892 43.78618 73.61389 C 43.78618 72.39886 44.77115 71.4139 45.98618 71.4139 C 47.2012 71.4139 48.18617 72.39886 48.18617 73.61389 Z M 45.98618 73.61389  "></path> <path d=" M 66.58064 61.34491 C 66.58064 62.55994 65.59567 63.5449 64.38065 63.5449 C 63.16562 63.5449 62.18065 62.55994 62.18065 61.34491 C 62.18065 60.12988 63.16562 59.14491 64.38065 59.14491 C 65.59567 59.14491 66.58064 60.12988 66.58064 61.34491 Z M 64.38065 61.34491  "></path> <path d=" M 84.97511 24.53796 C 84.97511 25.75299 83.99014 26.73796 82.77512 26.73796 C 81.56009 26.73796 80.57512 25.75299 80.57512 24.53796 C 80.57512 23.32294 81.56009 22.33797 82.77512 22.33797 C 83.99014 22.33797 84.97511 23.32294 84.97511 24.53796 Z M 82.77512 24.53796  "></path> <path d=" M 103.36958 12.26898 C 103.36958 13.48401 102.38461 14.46898 101.16959 14.46898 C 99.95456 14.46898 98.96959 13.48401 98.96959 12.26898 C 98.96959 11.05396 99.95456 10.06898 101.16959 10.06898 C 102.38461 10.06898 103.36958 11.05396 103.36958 12.26898 Z M 101.16959 12.26898  "></path> <path d=" M 121.76405 36.80695 C 121.76405 38.02197 120.77908 39.00694 119.56406 39.00694 C 118.34903 39.00694 117.36406 38.02197 117.36406 36.80695 C 117.36406 35.59192 118.34903 34.60695 119.56406 34.60695 C 120.77908 34.60695 121.76405 35.59192 121.76405 36.80695 Z M 119.56406 36.80695  "></path> <path d=" M 140.15852 57.25525 C 140.15852 58.47028 139.17355 59.45525 137.95853 59.45525 C 136.7435 59.45525 135.75853 58.47028 135.75853 57.25525 C 135.75853 56.04022 136.7435 55.05525 137.95853 55.05525 C 139.17355 55.05525 140.15852 56.04022 140.15852 57.25525 Z M 137.95853 57.25525  "></path> <path d="  " fill="none"></path> </g> </g> <g transform="translate(146.20413,21.68994)"> <g stroke="#000" fill="#000"> <g stroke="none" transform="scale(-1,1) translate(-71.87001037597655,13.612869262695309) scale(-1,-1)"><g fill="#000"> <g stroke="none"> <text alignment-baseline="baseline" y="13.612869262695309" x="-71.87001037597655" font-family="cmmi10" font-size="10" fill="black"></text></g> </g> </g></g> </g> </g> </g> </g></g></g> </g> </g> </g> </g></svg>
