<svg version="1.1" xmlns="http://www.w3.org/2000/svg" xmlns:xlink="http://www.w3.org/1999/xlink" width="258.84491pt" height="131.05267pt" viewBox="-72 -72 258.84491 131.05267" role="img"><g stroke-miterlimit="10" transform="translate(-30.348159790039055,26.916717529296868) scale(1,-1)"><g stroke="#000" fill="#000"> <g stroke-width="0.4"> <g stroke="#000" fill="#000"> <g stroke="none" transform="scale(-1,1) translate(-30.348159790039055,26.916717529296868) scale(-1,-1)"></g></g> <g transform="translate(-41.92184,-31.86595)"> <g stroke="#000" fill="#000"> <g stroke="none" transform="scale(-1,1) translate(-30.348159790039055,26.916717529296868) scale(-1,-1)"><g stroke-miterlimit="10" transform="translate(11.57368469238281,-4.949234008789062) scale(1,-1)"><g stroke="#000" fill="#000"> <g stroke-width="0.4"> <g stroke-width="0.2"> <g stroke="#808080" fill="#808080"> <path d=" M 0.0 -2.13379 L 0.0 2.13379 M 42.21802 -2.13379 L 42.21802 2.13379 M 84.43604 -2.13379 L 84.43604 2.13379 M 126.65405 -2.13379 L 126.65405 2.13379 M 168.87207 -2.13379 L 168.87207 2.13379 M 211.09009 -2.13379 L 211.09009 2.13379  " fill="none"></path> </g> </g> <g stroke-width="0.2"> <g stroke="#808080" fill="#808080"> <path d=" M -2.13393 0.0 L 2.13393 0.0 M -2.13393 46.31577 L 2.13393 46.31577 M -2.13393 92.63153 L 2.13393 92.63153  " fill="none"></path> </g> </g> <path d=" M 0.0 0.0 L 209.06883 0.0  " fill="none"></path> <g transform="translate(209.06883,0.0)"> <path d=" M 1.99997 0.0 L -1.19998 1.59998 L 0.0 0.0 L -1.19998 -1.59998  " stroke="none"></path>  </g> <path d=" M 0.0 0.0 L 0.0 95.26314  " fill="none"></path> <g transform="matrix(0.0,1.0,-1.0,0.0,0.0,95.26314)"> <path d=" M 1.99997 0.0 L -1.19998 1.59998 L 0.0 0.0 L -1.19998 -1.59998  " stroke="none"></path>  </g> <g transform="translate(-2.5,-12.11119)"> <g stroke="#000" fill="#000"> <g stroke="none" transform="scale(-1,1) translate(11.57368469238281,-4.949234008789062) scale(-1,-1)"><g fill="#000"> <g stroke="none"> <text alignment-baseline="baseline" y="-4.949234008789062" x="11.57368469238281" font-family="cmr10" font-size="10" fill="black"></text></g> </g> </g></g> </g> <g transform="translate(35.82912,-12.11119)"> <g stroke="#000" fill="#000"> <g stroke="none" transform="scale(-1,1) translate(11.57368469238281,-4.949234008789062) scale(-1,-1)"><g fill="#000"> <g stroke="none"> <text alignment-baseline="baseline" y="-4.949234008789062" x="11.57368469238281" font-family="cmr10" font-size="10" fill="black"></text><text alignment-baseline="baseline" y="-4.949234008789062" x="16.573703765869137" font-family="cmmi10" font-size="10" fill="black"></text><text alignment-baseline="baseline" y="-4.949234008789062" x="19.35149002075195" font-family="cmr10" font-size="10" fill="black"></text></g> </g> </g></g> </g> <g transform="translate(78.04713,-12.11119)"> <g stroke="#000" fill="#000"> <g stroke="none" transform="scale(-1,1) translate(11.57368469238281,-4.949234008789062) scale(-1,-1)"><g fill="#000"> <g stroke="none"> <text alignment-baseline="baseline" y="-4.949234008789062" x="11.57368469238281" font-family="cmr10" font-size="10" fill="black"></text><text alignment-baseline="baseline" y="-4.949234008789062" x="16.573703765869137" font-family="cmmi10" font-size="10" fill="black"></text><text alignment-baseline="baseline" y="-4.949234008789062" x="19.35149002075195" font-family="cmr10" font-size="10" fill="black"></text></g> </g> </g></g> </g> <g transform="translate(120.26515,-12.11119)"> <g stroke="#000" fill="#000"> <g stroke="none" transform="scale(-1,1) translate(11.57368469238281,-4.949234008789062) scale(-1,-1)"><g fill="#000"> <g stroke="none"> <text alignment-baseline="baseline" y="-4.949234008789062" x="11.57368469238281" font-family="cmr10" font-size="10" fill="black"></text><text alignment-baseline="baseline" y="-4.949234008789062" x="16.573703765869137" font-family="cmmi10" font-size="10" fill="black"></text><text alignment-baseline="baseline" y="-4.949234008789062" x="19.35149002075195" font-family="cmr10" font-size="10" fill="black"></text></g> </g> </g></g> </g> <g transform="translate(162.48317,-12.11119)"> <g stroke="#000" fill="#000"> <g stroke="none" transform="scale(-1,1) translate(11.57368469238281,-4.949234008789062) scale(-1,-1)"><g fill="#000"> <g stroke="none"> <text alignment-baseline="baseline" y="-4.949234008789062" x="11.57368469238281" font-family="cmr10" font-size="10" fill="black"></text><text alignment-baseline="baseline" y="-4.949234008789062" x="16.573703765869137" font-family="cmmi10" font-size="10" fill="black"></text><text alignment-baseline="baseline" y="-4.949234008789062" x="19.35149002075195" font-family="cmr10" font-size="10" fill="black"></text></g> </g> </g></g> </g> <g transform="translate(208.59009,-12.11119)"> <g stroke="#000" fill="#000"> <g stroke="none" transform="scale(-1,1) translate(11.57368469238281,-4.949234008789062) scale(-1,-1)"><g fill="#000"> <g stroke="none"> <text alignment-baseline="baseline" y="-4.949234008789062" x="11.57368469238281" font-family="cmr10" font-size="10" fill="black"></text></g> </g> </g></g> </g> <g transform="translate(-10.6669,-3.22221)"> <g stroke="#000" fill="#000"> <g stroke="none" transform="scale(-1,1) translate(11.57368469238281,-4.949234008789062) scale(-1,-1)"><g fill="#000"> <g stroke="none"> <text alignment-baseline="baseline" y="-4.949234008789062" x="11.57368469238281" font-family="cmr10" font-size="10" fill="black"></text></g> </g> </g></g> </g> <g transform="translate(-18.4447,43.09355)"> <g stroke="#000" fill="#000"> <g stroke="none" transform="scale(-1,1) translate(11.57368469238281,-4.949234008789062) scale(-1,-1)"><g fill="#000"> <g stroke="none"> <text alignment-baseline="baseline" y="-4.949234008789062" x="11.57368469238281" font-family="cmr10" font-size="10" fill="black"></text><text alignment-baseline="baseline" y="-4.949234008789062" x="16.573703765869137" font-family="cmmi10" font-size="10" fill="black"></text><text alignment-baseline="baseline" y="-4.949234008789062" x="19.35149002075195" font-family="cmr10" font-size="10" fill="black"></text></g> </g> </g></g> </g> <g transform="translate(-10.6669,89.40932)"> <g stroke="#000" fill="#000"> <g stroke="none" transform="scale(-1,1) translate(11.57368469238281,-4.949234008789062) scale(-1,-1)"><g fill="#000"> <g stroke="none"> <text alignment-baseline="baseline" y="-4.949234008789062" x="11.57368469238281" font-family="cmr10" font-size="10" fill="black"></text></g> </g> </g></g> </g> <clipPath id="pgf5337ea042d1ea971b77f94fb438e50b6b7589705cp1"><path d=" M 0.0 0.0 L 211.0688 0.0 L 211.0688 97.2631 L 0.0 97.2631 Z  "></path> </clipPath> <g clip-path="url(#pgf5337ea042d1ea971b77f94fb438e50b6b7589705cp1)"> <g stroke="#000" fill="#000"> <g stroke-width="0.8"> <path d=" M 0.0 92.63153 L 2.132 92.45923 L 4.264 92.0887 L 6.39603 91.532 L 8.52803 90.79094 L 10.66005 89.87387 L 12.79205 88.79008 L 14.92406 87.52939 L 17.05608 86.12138 L 19.18808 84.56517 L 21.3201 82.86816 L 23.4521 81.03406 L 25.5841 79.08879 L 27.71611 77.03145 L 29.84813 74.87312 L 31.98013 72.62126 L 34.11214 70.30455 L 36.24414 67.92485 L 38.37616 65.47752 L 40.50816 63.00426 L 42.64017 60.50227 L 44.77219 57.9725 L 46.90419 55.44368 L 49.0362 52.91391 L 51.1682 50.39339 L 53.30022 47.90161 L 55.43222 45.43668 L 57.56422 43.01808 L 59.69623 40.63744 L 61.82825 38.31146 L 63.96025 36.05127 L 66.09225 33.85497 L 68.22427 31.72351 L 70.35628 29.66708 L 72.48828 27.69405 L 74.62029 25.79416 L 76.7523 23.96933 L 78.88431 22.23619 L 81.01631 20.58643 L 83.14832 19.02095 L 85.28033 17.53792 L 87.41234 16.12991 L 89.54434 14.81454 L 91.67636 13.57329 L 93.80836 12.41446 L 95.94037 11.32976 L 98.07237 10.321 L 100.20439 9.38542 L 102.3364 8.51273 L 104.4684 7.70682 L 106.6004 6.96294 L 108.73242 6.27823 L 110.86443 5.64925 L 112.99643 5.07301 L 115.12845 4.54631 L 117.26045 4.06609 L 119.39246 3.6292 L 121.52446 3.23262 L 123.65648 2.87357 L 125.78848 2.54922 L 127.92049 2.25688 L 130.05249 1.99402 L 132.18451 1.75824 L 134.31651 1.54715 L 136.44852 1.35867 L 138.58054 1.19072 L 140.71254 1.04143 L 142.84454 0.90901 L 144.97655 0.79182 L 147.10857 0.68831 L 149.24057 0.59714 L 151.37257 0.51698 L 153.50458 0.44669 L 155.6366 0.38518 L 157.7686 0.33145 L 159.9006 0.28464 L 162.03262 0.24394 L 164.16463 0.20865 L 166.29663 0.17809 L 168.42863 0.1517 L 170.56065 0.12895 L 172.69266 0.1094 L 174.82466 0.09264 L 176.95667 0.07826 L 179.08868 0.066 L 181.22069 0.05554 L 183.35269 0.04663 L 185.48471 0.0391 L 187.61671 0.03268 L 189.74872 0.02728 L 191.88072 0.02274 L 194.01274 0.01889 L 196.14474 0.01567 L 198.27675 0.01299 L 200.40875 0.01073 L 202.54077 0.00883 L 204.67278 0.00728 L 206.80478 0.00597 L 208.9368 0.0049 L 211.0688 0.00401  " fill="none"></path> </g> </g> <g stroke="#000" fill="#000"> <g stroke-width="0.8"> <g stroke-dasharray="3.0,3.0" stroke-dashoffset="0.0"> <path d=" M 0.0 92.63153 L 2.132 92.57225 L 4.264 92.4648 L 6.39603 92.31102 L 8.52803 92.11743 L 10.66005 91.87566 L 12.79205 91.59221 L 14.92406 91.26428 L 17.05608 90.88727 L 19.18808 90.4621 L 21.3201 89.99986 L 23.4521 89.48761 L 25.5841 88.93645 L 27.71611 88.34917 L 29.84813 87.71371 L 31.98013 87.03659 L 34.11214 86.32516 L 36.24414 85.573 L 38.37616 84.77544 L 40.50816 83.94453 L 42.64017 83.07565 L 44.77219 82.16602 L 46.90419 81.22488 L 49.0362 80.24947 L 51.1682 79.23793 L 53.30022 78.19952 L 55.43222 77.12593 L 57.56422 76.02362 L 59.69623 74.89166 L 61.82825 73.72821 L 63.96025 72.53789 L 66.09225 71.32257 L 68.22427 70.08131 L 70.35628 68.81595 L 72.48828 67.53116 L 74.62029 66.22876 L 76.7523 64.89949 L 78.88431 63.56004 L 81.01631 62.19743 L 83.14832 60.81816 L 85.28033 59.42683 L 87.41234 58.01883 L 89.54434 56.60156 L 91.67636 55.17412 L 93.80836 53.73926 L 95.94037 52.29883 L 98.07237 50.84822 L 100.20439 49.39668 L 102.3364 47.94606 L 104.4684 46.48248 L 106.6004 45.02263 L 108.73242 43.5646 L 110.86443 42.11214 L 112.99643 40.66338 L 115.12845 39.21925 L 117.26045 37.78162 L 119.39246 36.35417 L 121.52446 34.93506 L 123.65648 33.52798 L 125.78848 32.13202 L 127.92049 30.75275 L 130.05249 29.3855 L 132.18451 28.03864 L 134.31651 26.70566 L 136.44852 25.39491 L 138.58054 24.10643 L 140.71254 22.8383 L 142.84454 21.5924 L 144.97655 20.37152 L 147.10857 19.1775 L 149.24057 18.00848 L 151.37257 16.86913 L 153.50458 15.75847 L 155.6366 14.67838 L 157.7686 13.62886 L 159.9006 12.61179 L 162.03262 11.62987 L 164.16463 10.6804 L 166.29663 9.76706 L 168.42863 8.89085 L 170.56065 8.04903 L 172.69266 7.24748 L 174.82466 6.48264 L 176.95667 5.7589 L 179.08868 5.0737 L 181.22069 4.43158 L 183.35269 3.83012 L 185.48471 3.27127 L 187.61671 2.75449 L 189.74872 2.2803 L 191.88072 1.85086 L 194.01274 1.4645 L 196.14474 1.12296 L 198.27675 0.82637 L 200.40875 0.57503 L 202.54077 0.36844 L 204.67278 0.20781 L 206.80478 0.09264 L 208.9368 0.0234 L 211.0688 0.0  " fill="none"></path> </g> </g> </g> </g> <g transform="translate(97.6125,-26.03297)"> <g stroke="#000" fill="#000"> <g stroke="none" transform="scale(-1,1) translate(11.57368469238281,-4.949234008789062) scale(-1,-1)"><g fill="#000"> <g stroke="none"> <text alignment-baseline="baseline" y="-4.949234008789062" x="11.57368469238281" font-family="cmmi10" font-size="10" fill="black"></text></g> </g> </g></g> </g> <g transform="matrix(0.0,1.0,-1.0,0.0,-32.9111,43.67262)"> <g stroke="#000" fill="#000"> <g stroke="none" transform="scale(-1,1) translate(11.57368469238281,-4.949234008789062) scale(-1,-1)"><g fill="#000"> <g stroke="none"> <text alignment-baseline="baseline" y="-4.949234008789062" x="12.568481445312496" font-family="cmr10" font-size="10" fill="black"></text><text alignment-baseline="baseline" y="-4.949234008789062" x="11.57368469238281" font-family="cmmi10" font-size="10" fill="black"></text><text alignment-baseline="baseline" y="-3.449249267578124" x="17.970703124999996" font-family="cmmi7" font-size="7" fill="black"></text></g> </g> </g></g> </g> <g fill="#fff"> <g stroke="#000"> <g fill="#fff"> <g stroke="#000"> <path d=" M 142.37271 66.87363 h 62.16428 v 27.2717 h -62.16428 Z  " stroke="none"></path> </g> </g> <g transform="translate(145.37271,74.6345)"> <g stroke="#000" fill="#000"> <g stroke="none" transform="scale(-1,1) translate(11.57368469238281,-4.949234008789062) scale(-1,-1)"><g stroke-miterlimit="10" transform="translate(11.973678588867186,-16.585083007812496) scale(1,-1)"><g fill="#000"> <g stroke="#000" fill="#000"> <g stroke-width="0.8"> <path d=" M 0.0 0.0 L 8.5359 0.0 L 17.07182 0.0  " fill="none"></path> </g> </g> </g> </g><g stroke-miterlimit="10" transform="translate(29.245498657226555,-16.585083007812496) scale(1,-1)"><g transform="translate(2.2,-2.37503)"> <g stroke="#000" fill="#000"> <g stroke="none" transform="scale(-1,1) translate(29.245498657226555,-16.585083007812496) scale(-1,-1)"><g fill="#000"> <g stroke="none"> <text alignment-baseline="baseline" y="-16.585083007812496" x="29.245498657226555" font-family="cmr9" font-size="9" fill="black"></text><text alignment-baseline="baseline" y="-16.585083007812496" x="54.96408939361571" font-family="cmmi9" font-size="9" fill="black"></text><text alignment-baseline="baseline" y="-15.585098266601559" x="60.17692184448241" font-family="cmmi6" font-size="6" fill="black"></text></g> </g> </g></g> </g> </g><g stroke-miterlimit="10" transform="translate(11.973678588867186,-4.949234008789062) scale(1,-1)"><g fill="#000"> <g stroke="#000" fill="#000"> <g stroke-width="0.8"> <g stroke-dasharray="3.0,3.0" stroke-dashoffset="0.0"> <path d=" M 0.0 0.0 L 8.5359 0.0 L 17.07182 0.0  " fill="none"></path> </g> </g> </g> </g> </g><g stroke-miterlimit="10" transform="translate(29.245498657226555,-4.949234008789062) scale(1,-1)"><g transform="translate(2.2,-2.26094)"> <g stroke="#000" fill="#000"> <g stroke="none" transform="scale(-1,1) translate(29.245498657226555,-4.949234008789062) scale(-1,-1)"><g fill="#000"> <g stroke="none"> <text alignment-baseline="baseline" y="-4.949234008789062" x="29.245498657226555" font-family="cmr9" font-size="9" fill="black"></text></g> </g> </g></g> </g> </g></g></g> </g> </g> </g> </g> </g> </g></g></g> </g> </g> </g> </g></svg>
